<svg xmlns="http://www.w3.org/2000/svg" id="svg2" version="1.1" width="512" height="512"><circle id="path3344" cx="256" cy="256" r="225" opacity="1" fill="#4aaee8" fill-opacity="1" stroke="none" stroke-width="91.342" stroke-miterlimit="4" stroke-dasharray="none" stroke-dashoffset="0" stroke-opacity="1"/><path d="M263.555 362.571c-2.474-2.497-11.188-17.707-19.364-33.8-8.177-16.093-16.523-31.627-18.547-34.52-2.308-3.297-15.36-11.137-34.989-21.015-35.309-17.771-40.054-21.584-39.098-31.422.873-8.989 4.452-10.849 54.156-28.14 22.735-7.909 59.405-20.662 81.489-28.341 22.084-7.679 42.602-13.961 45.595-13.961 6.25 0 12.122 5.524 12.122 11.405 0 2.213-7.367 25.297-16.37 51.298s-19.337 55.901-22.964 66.445c-12.26 35.64-21.636 59.512-24.768 63.06-4.293 4.866-11.881 4.422-17.262-1.009z" id="path3340" opacity="1" fill="#fff" fill-opacity="1" stroke="none" stroke-width="91.342" stroke-miterlimit="4" stroke-dasharray="none" stroke-dashoffset="0" stroke-opacity="1"/></svg>